#File generated from solving marker data for model walk1.trc
name solved_motion
datacolumns 106
datarows 4
range 0.6250000000 0.6500000000
units unknown
enforce_loops no
enforce_constraints no
endheader

time	lower_torso_TX	lower_torso_TY	lower_torso_TZ	lower_torso_RX	lower_torso_RY	lower_torso_RZ	lumbar_roll	lumbar_yaw	lumbar_pitch	neck_roll	neck_yaw	neck_pitch	arm_add_r	arm_rot_r	arm_flex_r	elbow_flex_r	pro_sup_r	wrist_dev_r	wrist_flex_r	arm_add_l	arm_rot_l	arm_flex_l	pro_sup_l	wrist_dev_l	wrist_flex_l	hip_add_r	hip_rot_r	hip_flex_r	ankle_flex_r	subt_angle_r	toe_angle_r	hip_add_l	hip_rot_l	hip_flex_l	knee_flex_l	ankle_flex_l	subt_angle_l	toe_angle_l	knee_flex_r	R.Shoulder_px	R.Shoulder_py	R.Shoulder_pz	R.Scapula_px	R.Scapula_py	R.Scapula_pz	L.Shoulder_px	L.Shoulder_py	L.Shoulder_pz	R.ASIS_px	R.ASIS_py	R.ASIS_pz	V.Sacral_px	V.Sacral_py	V.Sacral_pz	L.ASIS_px	L.ASIS_py	L.ASIS_pz	R.Elbow_px	R.Elbow_py	R.Elbow_pz	R.Wrist_px	R.Wrist_py	R.Wrist_pz	L.Elbow_px	L.Elbow_py	L.Elbow_pz	L.Wrist_px	L.Wrist_py	L.Wrist_pz	R.Thigh_px	R.Thigh_py	R.Thigh_pz	R.Knee_px	R.Knee_py	R.Knee_pz	R.Shank_px	R.Shank_py	R.Shank_pz	R.Ankle_px	R.Ankle_py	R.Ankle_pz	R.Heel_px	R.Heel_py	R.Heel_pz	R.Toe_px	R.Toe_py	R.Toe_pz	L.Thigh_px	L.Thigh_py	L.Thigh_pz	L.Knee_px	L.Knee_py	L.Knee_pz	L.Shank_px	L.Shank_py	L.Shank_pz	L.Ankle_px	L.Ankle_py	L.Ankle_pz	L.Heel_px	L.Heel_py	L.Heel_pz	L.Toe_px	L.Toe_py	L.Toe_pz	
0.6250000000	-0.9343188636	0.2834794235	0.7270745530	89.6739906550	-9.3119753379	1.5054091925	0.4683389391	12.8468122599	-22.5371434495	0.0000000000	0.0000000000	0.0000000000	-46.3182063462	-9.9999999977	18.4523297180	37.8101643916	50.0000000036	0.0000000000	0.0000000000	-21.6682541409	10.0000000000	21.3005019881	70.0000000000	0.0000000000	0.0000000000	4.9704992366	16.1600242996	36.4770533702	30.0000000000	14.1174747966	0.0000000000	0.2442496784	14.3539638166	54.7875375413	102.8015520501	14.0220593115	12.8587800312	-0.0150000000	94.2160279865	-0.8856715700	0.0359754300	1.1197111800	-1.0521375700	0.1788591500	1.1315291700	-0.9095637200	0.4928795800	1.1728332500	-0.9246778000	0.1427514500	0.7512467700	-1.1323098100	0.3195053100	0.8045441300	-0.8808950800	0.4175794100	0.7479038100	-0.9318672500	-0.1172782700	0.9016865200	-0.7252990700	-0.2022231600	0.8017044100	-0.9921138300	0.6375340000	0.9424744900	-0.8723936800	0.7163901400	0.7287315100	-0.8792132600	0.0652023500	0.4236979100	-0.8087008100	0.1439385700	0.3081786500	-0.9360956400	0.0520361700	0.1790886200	-1.1378105500	0.0919294800	0.0842049600	-1.2025582300	0.1156920400	0.1083461500	-1.0540268600	0.1562871700	0.0441397800	-0.7076541700	0.4674244100	0.4661330000	-0.6817038000	0.3863671600	0.4080488900	-0.8306884800	0.5416134000	0.2214655800	-0.9485174000	0.5222874100	0.1303232700	-1.0265882600	0.5069714700	0.1519270600	-0.8861580200	0.4510120800	0.0675133000	
0.6330000000	-0.9296023429	0.2844852511	0.7266903211	89.7091902273	-9.2424773931	1.2718645480	0.3542269113	12.9529250087	-22.4835788523	0.0000000000	0.0000000000	0.0000000000	-46.6470139931	-9.9999999977	19.3002970580	37.0106796799	50.0000000036	0.0000000000	0.0000000000	-22.1606938850	10.0000000000	20.5381098714	70.0000000000	0.0000000000	0.0000000000	4.3605283829	15.7507128795	36.4758326444	30.0000000000	15.1339901208	0.0000000000	1.1947125810	15.0245055501	55.9297840549	101.8742073996	14.0120237473	13.2637654602	-0.0160000000	94.3197727298	-0.8792517100	0.0369584000	1.1207946800	-1.0456773700	0.1800346700	1.1315596900	-0.9033991700	0.4944079900	1.1728319100	-0.9209219400	0.1423389000	0.7506466100	-1.1238521700	0.3213508600	0.8048289200	-0.8815656100	0.4186466700	0.7467033100	-0.9204000900	-0.1162159300	0.9012656900	-0.7146270800	-0.2003165900	0.8024331700	-0.9898539400	0.6387350500	0.9440327800	-0.8754539800	0.7228275100	0.7295698200	-0.8766769400	0.0643138200	0.4220032300	-0.8069576400	0.1408366100	0.3066237800	-0.9366619900	0.0504659800	0.1796036700	-1.1378997800	0.0941827000	0.0854011800	-1.2031654100	0.1153433200	0.1106210700	-1.0527775900	0.1567566500	0.0444002500	-0.6949950000	0.4635034800	0.4697437400	-0.6784961500	0.3825291100	0.4101232600	-0.8105632900	0.5402362700	0.2203061200	-0.9288447900	0.5170752600	0.1277330700	-1.0081384300	0.5090331100	0.1479059300	-0.8652472500	0.4473548900	0.0666143700	
0.6420000000	-0.9228458820	0.2852851712	0.7270960765	89.3850104273	-9.3948660444	1.6292378017	0.3388813588	14.1222950426	-23.2318688429	0.0000000000	0.0000000000	0.0000000000	-47.3134279382	-9.9999999977	18.0245257117	38.8426039073	50.0000000036	0.0000000000	0.0000000000	-22.0854608433	10.0000000000	20.4601370577	70.0000000000	0.0000000000	0.0000000000	4.3113664217	15.4924094238	35.4321627033	30.0000000000	15.9070183029	0.0000000000	1.0829496878	15.4216719547	56.4418098006	101.2635647526	13.9334621218	14.8249843455	-0.0170000000	94.1868314889	-0.8616935400	0.0437350000	1.1178929400	-1.0386367200	0.1813399700	1.1320860600	-0.8980600000	0.4946151700	1.1727529300	-0.9136762700	0.1428940900	0.7509366500	-1.1176782200	0.3233912000	0.8035872200	-0.8774449500	0.4180466600	0.7459041100	-0.9107503100	-0.1160332000	0.9009125400	-0.7020220900	-0.1963211500	0.8038070700	-0.9860404700	0.6396124900	0.9455387600	-0.8776333600	0.7259857200	0.7294831500	-0.8728464400	0.0644097000	0.4206280500	-0.8057720300	0.1386491100	0.3045650900	-0.9354974400	0.0497402100	0.1787881300	-1.1376771200	0.0937645900	0.0870171800	-1.2015268600	0.1163090500	0.1111043500	-1.0528342300	0.1571628600	0.0441980500	-0.6850609700	0.4622109700	0.4731114500	-0.6583294700	0.3806103200	0.4164110700	-0.7932551900	0.5369400000	0.2196229900	-0.9067214400	0.5164992100	0.1242579200	-0.9906787700	0.5095148000	0.1429858100	-0.8471917700	0.4445163600	0.0663350000	
0.6500000000	-0.9146295208	0.2842311223	0.7267653985	89.8872294042	-10.3838688461	1.8187210708	-0.5120940718	15.1857767078	-22.9519453619	0.0000000000	0.0000000000	0.0000000000	-47.4463986808	-9.9999999977	17.8177477619	39.0051689491	50.0000000036	0.0000000000	0.0000000000	-22.2856677034	10.0000000000	19.6838445523	70.0000000000	0.0000000000	0.0000000000	4.1092605704	16.5800034107	34.7982104754	30.0000000000	17.4581902944	0.0000000000	1.2950929861	15.1919181328	56.5501660253	100.3889433263	14.6175846220	13.1015088960	-0.0180000000	94.4418357962	-0.8565299100	0.0442569600	1.1185925300	-1.0310537100	0.1804395000	1.1312949200	-0.8925534700	0.4963067600	1.1725410200	-0.9080289900	0.1436634100	0.7502102100	-1.1098278800	0.3251773100	0.8037479900	-0.8645621900	0.4162127100	0.7473392300	-0.9033207400	-0.1159165000	0.9032542700	-0.6906793200	-0.1955086100	0.8045451700	-0.9846840800	0.6401480700	0.9467238200	-0.8770678700	0.7306910400	0.7288942900	-0.8695498000	0.0638562700	0.4193940100	-0.7980483400	0.1393317100	0.3012041600	-0.9356657100	0.0495262700	0.1786814700	-1.1372878400	0.0937909900	0.0883816700	-1.1989744900	0.1156073500	0.1127165100	-1.0529129600	0.1575737600	0.0445401500	-0.6755263700	0.4576201800	0.4765805100	-0.6454072900	0.3740258800	0.4184127800	-0.7749182100	0.5349397600	0.2188936000	-0.8909801000	0.5172608000	0.1216280700	-0.9712141100	0.5105040000	0.1377740300	-0.8245352800	0.4436507000	0.0648274900	
